<svg width="40" height="41" viewBox="0 0 40 41" fill="none" xmlns="http://www.w3.org/2000/svg">
<g id="g14">
<g id="g20">
<path id="path22" d="M4.39455 38.886C4.32777 38.9927 4.24701 39.094 4.15225 39.1891C4.05749 39.2843 3.94778 39.3681 3.82345 39.4407C3.69891 39.5132 3.56154 39.5702 3.41103 39.6126C3.26062 39.6548 3.09612 39.6758 2.91773 39.6758C2.62063 39.6758 2.34557 39.6205 2.09309 39.5096C1.84029 39.3987 1.6229 39.2453 1.44091 39.0491C1.25881 38.8531 1.11677 38.6205 1.0146 38.3512C0.912311 38.0818 0.861328 37.7866 0.861328 37.4661C0.861328 37.1452 0.913371 36.8502 1.01735 36.5808C1.12144 36.3117 1.26538 36.0787 1.44928 35.883C1.63329 35.6867 1.85058 35.5334 2.10136 35.4225C2.35214 35.3115 2.62423 35.256 2.91773 35.256C3.06273 35.256 3.20487 35.272 3.34414 35.3042C3.48353 35.3364 3.61454 35.3818 3.73717 35.4402C3.8596 35.4987 3.9711 35.5684 4.07148 35.6502C4.17175 35.732 4.25538 35.8244 4.32226 35.9274L3.98774 36.1888C3.94694 36.1213 3.89203 36.0543 3.82345 35.9867C3.75456 35.9195 3.67379 35.86 3.58094 35.8086C3.48798 35.757 3.38686 35.7155 3.27716 35.6838C3.16766 35.6522 3.04969 35.6362 2.92324 35.6362C2.66695 35.6362 2.43757 35.6856 2.23502 35.7841C2.03246 35.883 1.86075 36.0162 1.71957 36.1839C1.57849 36.352 1.47069 36.5463 1.39628 36.7672C1.32187 36.9885 1.28488 37.2213 1.28488 37.4661C1.28488 37.7108 1.32293 37.9437 1.39904 38.1648C1.47535 38.3857 1.584 38.5801 1.72508 38.748C1.86626 38.9159 2.03819 39.0491 2.24074 39.1477C2.44309 39.2464 2.67076 39.2957 2.92324 39.2957C3.14986 39.2957 3.36534 39.2462 3.56981 39.1472C3.77416 39.0482 3.94503 38.8898 4.0825 38.6721L4.39455 38.886Z" fill="#73D2F6"/>
</g>
<g id="g24">
<path id="path26" d="M4.78628 37.111C4.78246 36.9922 4.77695 36.8854 4.76953 36.7901H5.13171C5.13913 36.8654 5.14465 36.9485 5.14846 37.0396C5.15207 37.1309 5.15397 37.2059 5.15397 37.2656H5.165C5.23941 37.1031 5.35081 36.9715 5.49962 36.8703C5.64823 36.7693 5.81527 36.7188 6.00098 36.7188C6.04931 36.7188 6.09309 36.7208 6.1322 36.7249C6.1711 36.7288 6.21106 36.7367 6.25187 36.7485L6.20162 37.1346C6.17936 37.1268 6.14216 37.1189 6.09033 37.111C6.03818 37.1031 5.98614 37.099 5.93431 37.099C5.83393 37.099 5.73726 37.1187 5.6443 37.1583C5.55145 37.198 5.47069 37.26 5.402 37.345C5.33321 37.43 5.27746 37.5385 5.23474 37.6709C5.19203 37.8034 5.17083 37.9625 5.17083 38.148V39.5703H4.79179V37.4019C4.79179 37.3267 4.78988 37.2297 4.78628 37.111Z" fill="#73D2F6"/>
</g>
<g id="g28">
<path id="path30" d="M8.70293 38.1792C8.70293 38.0249 8.67971 37.8792 8.63318 37.7426C8.58665 37.606 8.52072 37.4871 8.43529 37.3862C8.34986 37.2851 8.24598 37.2049 8.12335 37.1456C8.00061 37.0862 7.86313 37.0566 7.71092 37.0566C7.5585 37.0566 7.42209 37.0862 7.30136 37.1456C7.18063 37.2049 7.0775 37.2851 6.99207 37.3862C6.90642 37.4871 6.8406 37.606 6.79418 37.7426C6.74764 37.8792 6.72454 38.0249 6.72454 38.1792C6.72454 38.3338 6.74764 38.4792 6.79418 38.6158C6.8406 38.7526 6.90642 38.8714 6.99207 38.9725C7.0775 39.0733 7.18063 39.1526 7.30136 39.2099C7.42209 39.2674 7.5585 39.296 7.71092 39.296C7.86313 39.296 8.00061 39.2674 8.12335 39.2099C8.24598 39.1526 8.34986 39.0733 8.43529 38.9725C8.52072 38.8714 8.58665 38.7526 8.63318 38.6158C8.67971 38.4792 8.70293 38.3338 8.70293 38.1792ZM9.10422 38.1792C9.10422 38.3893 9.06977 38.5832 9.00109 38.7613C8.9323 38.9396 8.83659 39.0941 8.71395 39.2248C8.59153 39.3554 8.44472 39.4576 8.27375 39.5308C8.10289 39.6041 7.91517 39.6406 7.71092 39.6406C7.51028 39.6406 7.32457 39.6041 7.1536 39.5308C6.98274 39.4576 6.83583 39.3554 6.71341 39.2248C6.59077 39.0941 6.49517 38.9396 6.42627 38.7613C6.35769 38.5832 6.32324 38.3893 6.32324 38.1792C6.32324 37.9694 6.35769 37.7753 6.42627 37.5971C6.49517 37.4188 6.59077 37.2646 6.71341 37.1336C6.83583 37.003 6.98274 36.9011 7.1536 36.8277C7.32457 36.7546 7.51028 36.7178 7.71092 36.7178C7.91517 36.7178 8.10289 36.7546 8.27375 36.8277C8.44472 36.9011 8.59153 37.003 8.71395 37.1336C8.83659 37.2646 8.9323 37.4188 9.00109 37.5971C9.06977 37.7753 9.10422 37.9694 9.10422 38.1792Z" fill="#73D2F6"/>
</g>
<g id="g32">
<path id="path34" d="M12.7984 36.0401C12.7129 35.9135 12.6032 35.8113 12.4696 35.7343C12.3358 35.657 12.1741 35.6182 11.9848 35.6182C11.888 35.6182 11.7896 35.6341 11.6893 35.6658C11.589 35.6976 11.498 35.746 11.4162 35.8113C11.3345 35.8768 11.2687 35.959 11.2185 36.058C11.1683 36.1571 11.1433 36.2739 11.1433 36.4086C11.1433 36.5432 11.1672 36.6541 11.2154 36.7411C11.2636 36.8281 11.3275 36.9025 11.407 36.9642C11.4867 37.0253 11.5777 37.076 11.6795 37.1155C11.7814 37.1551 11.8878 37.1948 11.999 37.2342C12.136 37.2818 12.274 37.3334 12.413 37.3888C12.552 37.4443 12.677 37.5166 12.7882 37.6056C12.8994 37.6946 12.9901 37.8074 13.0605 37.9443C13.1308 38.0807 13.1661 38.2543 13.1661 38.4641C13.1661 38.6739 13.1284 38.8551 13.0534 39.0076C12.9784 39.1601 12.8808 39.2859 12.761 39.3848C12.6409 39.4839 12.5038 39.557 12.3497 39.6046C12.1956 39.6523 12.0404 39.6758 11.8844 39.6758C11.7654 39.6758 11.6465 39.6631 11.5277 39.6373C11.4087 39.6115 11.2955 39.573 11.1877 39.5212C11.0799 39.47 10.9796 39.4048 10.8869 39.3255C10.794 39.2462 10.7122 39.1551 10.6416 39.0522L10.9872 38.779C11.0725 38.9295 11.1923 39.055 11.3467 39.156C11.5008 39.257 11.6818 39.3076 11.8899 39.3076C11.9903 39.3076 12.0925 39.2906 12.1964 39.257C12.3004 39.2235 12.3943 39.1719 12.4779 39.1026C12.5616 39.0332 12.6303 38.948 12.684 38.8472C12.738 38.7461 12.765 38.6284 12.765 38.4937C12.765 38.3471 12.738 38.2255 12.684 38.1283C12.6303 38.0313 12.5586 37.9502 12.4696 37.8849C12.3803 37.8195 12.2781 37.765 12.163 37.7213C12.0478 37.6778 11.9271 37.6343 11.8009 37.5908C11.6708 37.5473 11.5427 37.4977 11.4162 37.4422C11.2899 37.3869 11.1767 37.3144 11.0763 37.2254C10.976 37.1364 10.8952 37.0262 10.834 36.8957C10.7725 36.765 10.742 36.6045 10.742 36.4145C10.742 36.2123 10.78 36.0383 10.8561 35.8916C10.9321 35.7451 11.0317 35.6243 11.1543 35.5294C11.2769 35.4343 11.4125 35.3649 11.5611 35.3214C11.7097 35.2779 11.8566 35.256 12.0015 35.256C12.2689 35.256 12.4974 35.3065 12.687 35.4075C12.8764 35.5086 13.0195 35.6282 13.1159 35.7669L12.7984 36.0401Z" fill="#73D2F6"/>
</g>
<g id="g36">
<path id="path38" d="M14.0604 36.7883C14.0678 36.8635 14.0734 36.9467 14.0772 37.0377C14.0809 37.129 14.0828 37.2041 14.0828 37.2636H14.0938C14.1682 37.1011 14.2889 36.9695 14.4562 36.8685C14.6233 36.7674 14.7996 36.7169 14.9857 36.7169C15.3161 36.7169 15.5643 36.8218 15.7296 37.0319C15.8948 37.2419 15.9777 37.519 15.9777 37.8636V39.5684H15.5986V38.0299C15.5986 37.8834 15.5874 37.7508 15.5651 37.6318C15.543 37.5129 15.5047 37.411 15.451 37.3258C15.3969 37.2408 15.3245 37.1744 15.2335 37.1268C15.1425 37.0792 15.0282 37.0556 14.8909 37.0556C14.7905 37.0556 14.693 37.0774 14.5981 37.1209C14.5036 37.1644 14.419 37.2307 14.3446 37.3198C14.2702 37.4091 14.2109 37.5219 14.1663 37.6585C14.1219 37.7952 14.0995 37.9565 14.0995 38.1428V39.5684H13.7206V37.4C13.7206 37.3249 13.7186 37.2278 13.715 37.1092C13.7112 36.9904 13.7057 36.8834 13.6982 36.7883H14.0604Z" fill="#73D2F6"/>
</g>
<g id="g40">
<path id="path42" d="M18.8836 38.1792C18.8836 38.0249 18.8604 37.8792 18.8138 37.7426C18.7673 37.606 18.7014 37.4871 18.616 37.3862C18.5305 37.2851 18.4266 37.2049 18.304 37.1456C18.1813 37.0862 18.0438 37.0566 17.8916 37.0566C17.7392 37.0566 17.6028 37.0862 17.482 37.1456C17.3613 37.2049 17.2582 37.2851 17.1727 37.3862C17.0871 37.4871 17.0213 37.606 16.9748 37.7426C16.9283 37.8792 16.9052 38.0249 16.9052 38.1792C16.9052 38.3338 16.9283 38.4792 16.9748 38.6158C17.0213 38.7526 17.0871 38.8714 17.1727 38.9725C17.2582 39.0733 17.3613 39.1526 17.482 39.2099C17.6028 39.2674 17.7392 39.296 17.8916 39.296C18.0438 39.296 18.1813 39.2674 18.304 39.2099C18.4266 39.1526 18.5305 39.0733 18.616 38.9725C18.7014 38.8714 18.7673 38.7526 18.8138 38.6158C18.8604 38.4792 18.8836 38.3338 18.8836 38.1792ZM19.2849 38.1792C19.2849 38.3893 19.2504 38.5832 19.1818 38.7613C19.113 38.9396 19.0172 39.0941 18.8946 39.2248C18.7722 39.3554 18.6254 39.4576 18.4544 39.5308C18.2836 39.6041 18.0958 39.6406 17.8916 39.6406C17.6909 39.6406 17.5052 39.6041 17.3343 39.5308C17.1634 39.4576 17.0165 39.3554 16.8941 39.2248C16.7714 39.0941 16.6758 38.9396 16.6069 38.7613C16.5384 38.5832 16.5039 38.3893 16.5039 38.1792C16.5039 37.9694 16.5384 37.7753 16.6069 37.5971C16.6758 37.4188 16.7714 37.2646 16.8941 37.1336C17.0165 37.003 17.1634 36.9011 17.3343 36.8277C17.5052 36.7546 17.6909 36.7178 17.8916 36.7178C18.0958 36.7178 18.2836 36.7546 18.4544 36.8277C18.6254 36.9011 18.7722 37.003 18.8946 37.1336C19.0172 37.2646 19.113 37.4188 19.1818 37.5971C19.2504 37.7753 19.2849 37.9694 19.2849 38.1792Z" fill="#73D2F6"/>
</g>
<g id="g44">
<path id="path46" d="M19.8414 36.7883L20.4712 39.0457H20.4822L21.1845 36.7883H21.5522L22.2655 39.0457H22.2768L22.9008 36.7883H23.3021L22.4775 39.5684H22.0648L21.3683 37.3171H21.3571L20.6716 39.5684H20.2592L19.4346 36.7883H19.8414Z" fill="#73D2F6"/>
</g>
<g id="g48">
<path id="path50" d="M25.0876 37.4485C25.032 37.3338 24.9474 37.2396 24.8341 37.1662C24.7208 37.0933 24.5918 37.0566 24.4468 37.0566C24.38 37.0566 24.3131 37.0645 24.2461 37.0801C24.1794 37.096 24.1199 37.1218 24.0679 37.1576C24.0157 37.1929 23.974 37.2387 23.9424 37.294C23.911 37.3498 23.895 37.415 23.895 37.4902C23.895 37.6207 23.9451 37.7208 24.0455 37.7902C24.1459 37.8596 24.3037 37.918 24.5193 37.9653C24.8277 38.0327 25.0551 38.131 25.202 38.2594C25.3487 38.3884 25.4221 38.5615 25.4221 38.7794C25.4221 38.9376 25.3933 39.0713 25.3357 39.1803C25.2781 39.2892 25.2028 39.3785 25.11 39.4476C25.017 39.5169 24.9121 39.5666 24.7952 39.596C24.6781 39.6259 24.5601 39.6406 24.4413 39.6406C24.2442 39.6406 24.0529 39.5969 23.8672 39.5099C23.6814 39.4229 23.5292 39.2863 23.4102 39.1001L23.7112 38.8624C23.7781 38.9852 23.8765 39.088 24.0066 39.1714C24.1364 39.2545 24.2797 39.296 24.4358 39.296C24.5174 39.296 24.5954 39.2883 24.6698 39.2725C24.7439 39.2566 24.809 39.229 24.8648 39.1891C24.9206 39.1497 24.9652 39.0992 24.9986 39.0377C25.032 38.9764 25.0487 38.9 25.0487 38.8089C25.0487 38.6625 24.9826 38.5527 24.8508 38.4792C24.7189 38.406 24.5284 38.3376 24.2797 38.2741C24.2017 38.2547 24.1188 38.2297 24.0317 38.2001C23.9443 38.1704 23.8635 38.1269 23.7892 38.0694C23.7148 38.012 23.6535 37.9398 23.6053 37.8525C23.5571 37.7655 23.5328 37.6565 23.5328 37.5258C23.5328 37.3832 23.5588 37.2614 23.6108 37.1603C23.6628 37.0595 23.7326 36.9763 23.8197 36.911C23.9072 36.8456 24.0066 36.7971 24.118 36.7654C24.2296 36.7336 24.3445 36.7178 24.4635 36.7178C24.6455 36.7178 24.8219 36.7616 24.9931 36.8486C25.1637 36.9356 25.2921 37.0584 25.3775 37.217L25.0876 37.4485Z" fill="#73D2F6"/>
</g>
<g id="g52">
<path id="path54" d="M28.252 38.1802C28.252 38.0258 28.2297 37.8802 28.1853 37.7436C28.1406 37.607 28.0765 37.488 27.993 37.3871C27.9094 37.2861 27.8063 37.2059 27.6837 37.1466C27.5611 37.0871 27.4218 37.0575 27.2656 37.0575C27.1209 37.0575 26.9869 37.086 26.8645 37.1436C26.7418 37.2011 26.6361 37.2802 26.5467 37.381C26.4577 37.4821 26.388 37.601 26.3378 37.7377C26.2877 37.8743 26.2625 38.0218 26.2625 38.1802C26.2625 38.3386 26.2877 38.4863 26.3378 38.6227C26.388 38.7596 26.4577 38.8773 26.5467 38.9762C26.6361 39.0754 26.7418 39.1536 26.8645 39.2109C26.9869 39.2684 27.1209 39.297 27.2656 39.297C27.4218 39.297 27.5611 39.2684 27.6837 39.2109C27.8063 39.1536 27.9094 39.0743 27.993 38.9735C28.0765 38.8724 28.1406 38.7536 28.1853 38.6168C28.2297 38.4802 28.252 38.3348 28.252 38.1802ZM26.3072 40.9961H25.9282V36.7901H26.3072V37.2714H26.3238C26.4316 37.0892 26.5754 36.9514 26.7557 36.8586C26.9359 36.7655 27.119 36.7188 27.3047 36.7188C27.5089 36.7188 27.6939 36.7566 27.8592 36.8318C28.0244 36.907 28.1658 37.01 28.2827 37.1405C28.3998 37.2714 28.4907 37.4259 28.5558 37.6041C28.6208 37.7821 28.6533 37.9742 28.6533 38.1802C28.6533 38.3862 28.6208 38.5782 28.5558 38.7563C28.4907 38.9347 28.3998 39.089 28.2827 39.2199C28.1658 39.3504 28.0244 39.4536 27.8592 39.5288C27.6939 39.604 27.5089 39.6416 27.3047 39.6416C27.119 39.6416 26.9359 39.5951 26.7557 39.502C26.5754 39.4089 26.4316 39.2753 26.3238 39.101H26.3072V40.9961Z" fill="#73D2F6"/>
</g>
<g id="g56">
<path id="path58" d="M31.409 38.1792C31.409 38.0249 31.3858 37.8792 31.3392 37.7426C31.2927 37.606 31.2268 37.4871 31.1413 37.3862C31.0559 37.2851 30.952 37.2049 30.8294 37.1456C30.7067 37.0862 30.5692 37.0566 30.417 37.0566C30.2646 37.0566 30.1281 37.0862 30.0074 37.1456C29.8867 37.2049 29.7836 37.2851 29.6981 37.3862C29.6125 37.4871 29.5467 37.606 29.5002 37.7426C29.4537 37.8792 29.4306 38.0249 29.4306 38.1792C29.4306 38.3338 29.4537 38.4792 29.5002 38.6158C29.5467 38.7526 29.6125 38.8714 29.6981 38.9725C29.7836 39.0733 29.8867 39.1526 30.0074 39.2099C30.1281 39.2674 30.2646 39.296 30.417 39.296C30.5692 39.296 30.7067 39.2674 30.8294 39.2099C30.952 39.1526 31.0559 39.0733 31.1413 38.9725C31.2268 38.8714 31.2927 38.7526 31.3392 38.6158C31.3858 38.4792 31.409 38.3338 31.409 38.1792ZM31.8103 38.1792C31.8103 38.3893 31.7758 38.5832 31.7071 38.7613C31.6384 38.9396 31.5426 39.0941 31.42 39.2248C31.2976 39.3554 31.1508 39.4576 30.9798 39.5308C30.8089 39.6041 30.6212 39.6406 30.417 39.6406C30.2163 39.6406 30.0306 39.6041 29.8597 39.5308C29.6888 39.4576 29.5419 39.3554 29.4195 39.2248C29.2968 39.0941 29.2012 38.9396 29.1323 38.7613C29.0637 38.5832 29.0293 38.3893 29.0293 38.1792C29.0293 37.9694 29.0637 37.7753 29.1323 37.5971C29.2012 37.4188 29.2968 37.2646 29.4195 37.1336C29.5419 37.003 29.6888 36.9011 29.8597 36.8277C30.0306 36.7546 30.2163 36.7178 30.417 36.7178C30.6212 36.7178 30.8089 36.7546 30.9798 36.8277C31.1508 36.9011 31.2976 37.003 31.42 37.1336C31.5426 37.2646 31.6384 37.4188 31.7071 37.5971C31.7758 37.7753 31.8103 37.9694 31.8103 38.1792Z" fill="#73D2F6"/>
</g>
<g id="g60">
<path id="path62" d="M32.34 37.111C32.3362 36.9922 32.3307 36.8854 32.3232 36.7901H32.6854C32.6928 36.8654 32.6984 36.9485 32.7022 37.0396C32.7058 37.1309 32.7077 37.2059 32.7077 37.2656H32.7187C32.7931 37.1031 32.9045 36.9715 33.0533 36.8703C33.2019 36.7693 33.369 36.7188 33.5547 36.7188C33.603 36.7188 33.6468 36.7208 33.6859 36.7249C33.7248 36.7288 33.7648 36.7367 33.8056 36.7485L33.7553 37.1346C33.7331 37.1268 33.6959 37.1189 33.644 37.111C33.5919 37.1031 33.5398 37.099 33.488 37.099C33.3876 37.099 33.291 37.1187 33.198 37.1583C33.1052 37.198 33.0244 37.26 32.9557 37.345C32.8869 37.43 32.8312 37.5385 32.7885 37.6709C32.7457 37.8034 32.7245 37.9625 32.7245 38.148V39.5703H32.3455V37.4019C32.3455 37.3267 32.3436 37.2297 32.34 37.111Z" fill="#73D2F6"/>
</g>
<g id="g64">
<path id="path66" d="M35.5633 37.13H34.8277V38.7519C34.8277 38.8549 34.837 38.9399 34.8555 39.0075C34.874 39.0748 34.9009 39.1271 34.9362 39.1647C34.9715 39.2025 35.0134 39.2281 35.0616 39.2421C35.11 39.256 35.162 39.2628 35.2177 39.2628C35.2698 39.2628 35.3246 39.2549 35.3822 39.239C35.4398 39.2231 35.4944 39.2013 35.5466 39.1738L35.5633 39.524C35.4963 39.5519 35.4269 39.5725 35.3544 39.5865C35.2819 39.6004 35.2028 39.6074 35.1174 39.6074C35.0468 39.6074 34.9726 39.5975 34.8946 39.5775C34.8166 39.558 34.7442 39.5204 34.6772 39.4647C34.6104 39.4094 34.5554 39.3342 34.5129 39.239C34.4702 39.1438 34.4487 39.0192 34.4487 38.8647V37.13H33.9082V36.7915H34.4487V36.0074H34.8277V36.7915H35.5633V37.13Z" fill="#73D2F6"/>
</g>
<g id="g68">
<path id="path70" d="M37.4509 37.4485C37.3953 37.3338 37.3106 37.2396 37.1974 37.1662C37.0841 37.0933 36.9551 37.0566 36.8101 37.0566C36.7433 37.0566 36.6764 37.0645 36.6094 37.0801C36.5426 37.096 36.4832 37.1218 36.4311 37.1576C36.379 37.1929 36.3373 37.2387 36.3056 37.294C36.2743 37.3498 36.2583 37.415 36.2583 37.4902C36.2583 37.6207 36.3084 37.7208 36.4088 37.7902C36.5091 37.8596 36.667 37.918 36.8826 37.9653C37.191 38.0327 37.4184 38.131 37.5653 38.2594C37.7119 38.3884 37.7854 38.5615 37.7854 38.7794C37.7854 38.9376 37.7566 39.0713 37.6989 39.1803C37.6414 39.2892 37.5661 39.3785 37.4733 39.4476C37.3803 39.5169 37.2754 39.5666 37.1585 39.596C37.0413 39.6259 36.9234 39.6406 36.8046 39.6406C36.6075 39.6406 36.4162 39.5969 36.2305 39.5099C36.0447 39.4229 35.8925 39.2863 35.7734 39.1001L36.0745 38.8624C36.1413 38.9852 36.2398 39.088 36.3699 39.1714C36.4997 39.2545 36.643 39.296 36.799 39.296C36.8807 39.296 36.9587 39.2883 37.0331 39.2725C37.1072 39.2566 37.1722 39.229 37.2281 39.1891C37.2839 39.1497 37.3285 39.0992 37.3619 39.0377C37.3953 38.9764 37.412 38.9 37.412 38.8089C37.412 38.6625 37.3459 38.5527 37.2141 38.4792C37.0822 38.406 36.8917 38.3376 36.643 38.2741C36.565 38.2547 36.4821 38.2297 36.395 38.2001C36.3075 38.1704 36.2268 38.1269 36.1525 38.0694C36.0781 38.012 36.0168 37.9398 35.9686 37.8525C35.9203 37.7655 35.8961 37.6565 35.8961 37.5258C35.8961 37.3832 35.922 37.2614 35.9741 37.1603C36.0261 37.0595 36.0959 36.9763 36.183 36.911C36.2704 36.8456 36.3699 36.7971 36.4813 36.7654C36.5929 36.7336 36.7078 36.7178 36.8268 36.7178C37.0088 36.7178 37.1852 36.7616 37.3564 36.8486C37.527 36.9356 37.6554 37.0584 37.7408 37.217L37.4509 37.4485Z" fill="#73D2F6"/>
</g>
<g id="g72">
<path id="path74" d="M1.56428 32.1992L1.56152 27.3696L2.30412 27.3693L2.30508 29.1535L3.14837 29.153L3.14731 27.3687L3.90241 27.3682L3.90517 32.1979L3.14996 32.1984L3.1489 30.0921L2.30561 30.0927L2.30677 32.1989L1.56428 32.1992Z" fill="#DB1F26"/>
</g>
<g id="g76">
<path id="path78" d="M1.56428 32.1992L1.56152 27.3696L2.30412 27.3693L2.30508 29.1535L3.14837 29.153L3.14731 27.3687L3.90241 27.3682L3.90517 32.1979L3.14996 32.1984L3.1489 30.0921L2.30561 30.0927L2.30677 32.1989L1.56428 32.1992Z" fill="#DB1F26"/>
</g>
<g id="g80">
<path id="path82" d="M10 32.1914L11.216 28.2463L10.1761 28.2472L10.1755 27.3617L12.2319 27.3603L11.0314 31.2516L12.1278 31.251L12.1285 32.1901L10 32.1914Z" fill="#DB1F26"/>
</g>
<g id="g84">
<path id="path86" d="M10 32.1914L11.216 28.2463L10.1761 28.2472L10.1755 27.3617L12.2319 27.3603L11.0314 31.2516L12.1278 31.251L12.1285 32.1901L10 32.1914Z" fill="#DB1F26"/>
</g>
<g id="g88">
<path id="path90" d="M20.7656 27.3563L20.7672 30.3861C20.7675 30.7605 20.7593 31.0231 20.743 31.1741C20.7268 31.325 20.6982 31.4533 20.657 31.559C20.5658 31.7904 20.434 31.9618 20.261 32.073C20.0883 32.1844 19.8659 32.2401 19.5942 32.2402C19.4581 32.2405 19.3348 32.2272 19.2239 32.2008C19.1128 32.1746 19.0126 32.133 18.9231 32.0755C18.751 31.9633 18.6193 31.7917 18.528 31.5604C18.4883 31.4614 18.459 31.3315 18.44 31.1705C18.4331 31.1001 18.4268 30.995 18.4218 30.855C18.4166 30.7152 18.4139 30.5595 18.4138 30.3876L18.4137 30.2454L18.4121 27.3576L19.1672 27.3573L19.169 30.4634C19.1692 30.8559 19.2003 31.1092 19.2623 31.2237C19.324 31.3381 19.4357 31.3952 19.5972 31.3951C19.7588 31.395 19.8705 31.3373 19.9324 31.2215C19.9941 31.1057 20.0249 30.853 20.0248 30.4628L20.023 27.3569L20.7656 27.3563Z" fill="#DB1F26"/>
</g>
<g id="g92">
<path id="path94" d="M20.7656 27.3563L20.7672 30.3861C20.7675 30.7605 20.7593 31.0231 20.743 31.1741C20.7268 31.325 20.6982 31.4533 20.657 31.559C20.5658 31.7904 20.434 31.9618 20.261 32.073C20.0883 32.1844 19.8659 32.2401 19.5942 32.2402C19.4581 32.2405 19.3348 32.2272 19.2239 32.2008C19.1128 32.1746 19.0126 32.133 18.9231 32.0755C18.751 31.9633 18.6193 31.7917 18.528 31.5604C18.4883 31.4614 18.459 31.3315 18.44 31.1705C18.4331 31.1001 18.4268 30.995 18.4218 30.855C18.4166 30.7152 18.4139 30.5595 18.4138 30.3876L18.4137 30.2454L18.4121 27.3576L19.1672 27.3573L19.169 30.4634C19.1692 30.8559 19.2003 31.1092 19.2623 31.2237C19.324 31.3381 19.4357 31.3952 19.5972 31.3951C19.7588 31.395 19.8705 31.3373 19.9324 31.2215C19.9941 31.1057 20.0249 30.853 20.0248 30.4628L20.023 27.3569L20.7656 27.3563Z" fill="#DB1F26"/>
</g>
<g id="g96">
<path id="path98" d="M27.5318 32.1797L27.5297 28.2489L26.9508 28.2493L26.9502 27.3504L28.8631 27.3493L28.8637 28.248L28.2848 28.2484L28.287 32.1792L27.5318 32.1797Z" fill="#DB1F26"/>
</g>
<g id="g100">
<path id="path102" d="M27.5318 32.1797L27.5297 28.2489L26.9508 28.2493L26.9502 27.3504L28.8631 27.3493L28.8637 28.248L28.2848 28.2484L28.287 32.1792L27.5318 32.1797Z" fill="#DB1F26"/>
</g>
<g id="g104">
<path id="path106" d="M34.9438 32.0025L34.9432 31.0081C35.037 31.1109 35.1303 31.188 35.2232 31.2393C35.3158 31.2908 35.4091 31.3164 35.5026 31.3164C35.6273 31.3161 35.728 31.2733 35.8043 31.1872C35.8425 31.143 35.8704 31.0928 35.8886 31.0366C35.9068 30.9804 35.9159 30.9139 35.9159 30.8364C35.9158 30.6537 35.8162 30.4552 35.6167 30.2413L35.492 30.1025C35.2594 29.8382 35.0998 29.6003 35.0133 29.3885C34.9263 29.1769 34.8828 28.9387 34.8828 28.6742C34.8824 28.2575 34.9743 27.9207 35.1585 27.6637C35.3424 27.4067 35.5833 27.2782 35.8808 27.2779C35.9844 27.2778 36.0882 27.2967 36.192 27.3342C36.2957 27.3718 36.4047 27.4326 36.5189 27.5164L36.5196 28.3728C36.3872 28.2905 36.2827 28.2327 36.2063 28.1996C36.1295 28.1666 36.0644 28.15 36.0106 28.15C35.9009 28.15 35.8114 28.1942 35.7417 28.2825C35.6725 28.3707 35.6378 28.4844 35.6378 28.6233C35.638 28.745 35.664 28.8596 35.716 28.9678C35.7683 29.0759 35.8899 29.2348 36.0812 29.4442C36.3366 29.7223 36.5007 29.9533 36.5737 30.1375C36.6469 30.3217 36.6836 30.5439 36.6837 30.8043C36.684 31.2437 36.5868 31.5907 36.3925 31.8457C36.1978 32.1007 35.9331 32.2283 35.5976 32.2285C35.5336 32.2285 35.4727 32.2241 35.4148 32.2156C35.3567 32.2066 35.2993 32.1926 35.2423 32.173C35.1348 32.1359 35.0354 32.0791 34.9438 32.0025Z" fill="#DB1F26"/>
</g>
<g id="g108">
<path id="path110" d="M34.9438 32.0025L34.9432 31.0081C35.037 31.1109 35.1303 31.188 35.2232 31.2393C35.3158 31.2908 35.4091 31.3164 35.5026 31.3164C35.6273 31.3161 35.728 31.2733 35.8043 31.1872C35.8425 31.143 35.8704 31.0928 35.8886 31.0366C35.9068 30.9804 35.9159 30.9139 35.9159 30.8364C35.9158 30.6537 35.8162 30.4552 35.6167 30.2413L35.492 30.1025C35.2594 29.8382 35.0998 29.6003 35.0133 29.3885C34.9263 29.1769 34.8828 28.9387 34.8828 28.6742C34.8824 28.2575 34.9743 27.9207 35.1585 27.6637C35.3424 27.4067 35.5833 27.2782 35.8808 27.2779C35.9844 27.2778 36.0882 27.2967 36.192 27.3342C36.2957 27.3718 36.4047 27.4326 36.5189 27.5164L36.5196 28.3728C36.3872 28.2905 36.2827 28.2327 36.2063 28.1996C36.1295 28.1666 36.0644 28.15 36.0106 28.15C35.9009 28.15 35.8114 28.1942 35.7417 28.2825C35.6725 28.3707 35.6378 28.4844 35.6378 28.6233C35.638 28.745 35.664 28.8596 35.716 28.9678C35.7683 29.0759 35.8899 29.2348 36.0812 29.4442C36.3366 29.7223 36.5007 29.9533 36.5737 30.1375C36.6469 30.3217 36.6836 30.5439 36.6837 30.8043C36.684 31.2437 36.5868 31.5907 36.3925 31.8457C36.1978 32.1007 35.9331 32.2283 35.5976 32.2285C35.5336 32.2285 35.4727 32.2241 35.4148 32.2156C35.3567 32.2066 35.2993 32.1926 35.2423 32.173C35.1348 32.1359 35.0354 32.0791 34.9438 32.0025Z" fill="#DB1F26"/>
</g>
<g id="g112">
<path id="path114" d="M25.0689 10.8012C25.0689 10.8012 32.4306 23.8322 22.903 25.1842C20.0636 25.3977 14.5638 25.7794 0 19.6637L4.36136 16.9102C4.36136 16.9102 12.0109 21.4465 18.6452 22.8719C19.9719 23.132 27.0482 24.8527 26.6507 18.1067C25.8162 24.1636 18.8333 22.0761 16.8858 21.5025C14.9381 20.929 8.46759 18.3291 3.46221 15.1263L7.21346 12.6237C7.21346 12.6237 15.1267 18.8172 19.1442 19.9142C20.2272 20.2751 28.2882 23.4747 24.9147 10.8794L25.0689 10.8012Z" fill="#73D2F6"/>
</g>
<g id="g116">
<path id="path118" d="M24.401 13.2276L19.8059 18.1289L15.21 13.2276L19.8059 8.326L24.401 13.2276Z" fill="#DB1F26"/>
</g>
<g id="g120">
<path id="path122" d="M33.123 8.19797C33.123 8.19797 34.9226 9.15657 36.1037 7.69709C36.2927 7.50298 36.7878 6.99182 37.2044 6.48518C37.9259 5.60748 39.3922 4.51081 39.8987 5.08671C40.1203 5.33902 39.9089 6.013 39.9089 6.013C39.9089 6.013 39.8303 6.48461 39.2789 6.75409C38.8068 7.02346 35.3425 8.46067 35.3425 8.46067C35.3425 8.46067 34.2773 8.7819 33.123 8.19797Z" fill="#1C63B7"/>
</g>
<g id="g124">
<path id="path126" d="M34.3508 4.55469C32.4924 3.85834 29.3029 2.89398 28.4048 2.62529V2.6245C28.3883 2.61976 28.3725 2.61535 28.3558 2.61061C28.2313 2.57343 28.1612 2.55287 28.1612 2.55287L28.161 2.55592C21.6712 0.722336 18.4814 0.945715 16.5368 1.09158C7.00895 2.44372 14.3708 15.4746 14.3708 15.4746L14.5243 15.3963C11.1515 2.80122 19.214 6.00117 20.2972 6.36195C22.1208 6.86023 24.749 8.41077 27.0755 9.95443C27.0763 9.96188 27.0779 9.96663 27.0802 9.96855C27.1531 10.0208 29.6276 11.7178 29.9702 11.979C29.9702 11.979 30.2944 12.2126 30.3989 12.2663C30.7052 12.4229 31.1213 12.6186 31.4154 12.6448C31.7589 12.712 31.876 12.6611 32.0904 12.5698C32.3441 12.4542 32.6071 12.0851 32.7191 11.9489C33.2917 11.2527 34.1573 10.0321 34.1573 10.0321C34.1573 10.0321 33.7671 9.75952 33.2284 9.4723C31.9504 8.71584 29.063 7.40506 28.1063 6.97627L28.1078 6.97062C25.6258 5.85124 23.5261 5.05998 22.5536 4.77332C20.6075 4.19968 13.6236 2.11221 12.7887 8.16943C12.3916 1.42298 19.4689 3.14403 20.7955 3.40413C23.1361 3.90727 25.6038 4.7983 27.8174 5.74028L27.8148 5.76627L32.3704 7.8734C32.3704 7.8734 33.5338 8.45303 34.0787 8.53212C34.7223 8.6902 35.2977 8.34761 35.5516 8.05791C35.7482 7.83329 37.4045 5.62684 37.4045 5.62684C37.4045 5.62684 34.97 4.79185 34.3508 4.55469Z" fill="#1C63B7"/>
</g>
<g id="g128">
<path id="path130" d="M30.541 12.3229C30.541 12.3229 32.127 13.2689 33.2577 11.8093C33.4389 11.6153 33.9131 11.104 34.3117 10.5975C35.0028 9.7198 36.407 8.62336 36.8919 9.19926C37.1038 9.45145 36.9015 10.1254 36.9015 10.1254C36.9015 10.1254 36.826 10.5969 36.298 10.8664C35.8461 11.1358 32.5292 12.5729 32.5292 12.5729C32.5292 12.5729 31.6469 12.9069 30.541 12.3229Z" fill="#1C63B7"/>
</g>
</g>
</svg>
